# xmcd
#
# Track frame offsets:
#	150
#	15511
#	29578
#	44866
#	61608
#	80382
#	99533
#	112532
#	128782
#	148404
#	163145
#	178107
#	193190
#
# Disc length: 2764 seconds
#
# Revision: 0
# Processed by: cddbd v1.5.2PL0 Copyright (c) Steve Scherf et al.
# Submitted via: EasyCDDAExtractor 16.0.9.1
#
DISCID=b20aca0d
DTITLE=Cris Juanico - Un món de Nadales
DYEAR=1900
DGENRE=
TTITLE0=Fum Fum Fum
TTITLE1=El Desembre congelat
TTITLE2=Aclarida Beneïda
TTITLE3=El dimoni escuat
TTITLE4=Vés-hi des de la muntanya
TTITLE5=A la noneta nona
TTITLE6=Cholito
TTITLE7=El tamboriner
TTITLE8=Caminem
TTITLE9=El bon Jesuset
TTITLE10=El cant dels ocells
TTITLE11=L'Olentzero
TTITLE12=Santa Nit
EXTD=
EXTT0=
EXTT1=
EXTT2=
EXTT3=
EXTT4=
EXTT5=
EXTT6=
EXTT7=
EXTT8=
EXTT9=
EXTT10=
EXTT11=
EXTT12=
PLAYORDER=
